<mxfile host="app.diagrams.net" agent="Mozilla/5.0 (Macintosh; Intel Mac OS X 10_15_7) AppleWebKit/537.36 (KHTML, like Gecko) Chrome/131.0.0.0 Safari/537.36" version="24.9.1">
  <diagram name="第 1 页" id="ZOKv0q8nui8k0s3f1DoF">
    <mxGraphModel dx="1026" dy="566" grid="1" gridSize="10" guides="1" tooltips="1" connect="1" arrows="1" fold="1" page="1" pageScale="1" pageWidth="827" pageHeight="1169" math="0" shadow="0">
      <root>
        <mxCell id="0" />
        <mxCell id="1" parent="0" />
        <mxCell id="kjzc6ONVyExZSv5m1NrL-19" value="" style="edgeStyle=orthogonalEdgeStyle;rounded=0;orthogonalLoop=1;jettySize=auto;html=1;" edge="1" parent="1" source="kjzc6ONVyExZSv5m1NrL-2" target="kjzc6ONVyExZSv5m1NrL-8">
          <mxGeometry relative="1" as="geometry" />
        </mxCell>
        <mxCell id="kjzc6ONVyExZSv5m1NrL-21" value="&amp;nbsp;http request" style="edgeLabel;html=1;align=center;verticalAlign=middle;resizable=0;points=[];" vertex="1" connectable="0" parent="kjzc6ONVyExZSv5m1NrL-19">
          <mxGeometry x="-0.0571" y="-2" relative="1" as="geometry">
            <mxPoint as="offset" />
          </mxGeometry>
        </mxCell>
        <mxCell id="kjzc6ONVyExZSv5m1NrL-23" value="" style="edgeStyle=orthogonalEdgeStyle;rounded=0;orthogonalLoop=1;jettySize=auto;html=1;" edge="1" parent="1" source="kjzc6ONVyExZSv5m1NrL-2" target="kjzc6ONVyExZSv5m1NrL-4">
          <mxGeometry relative="1" as="geometry" />
        </mxCell>
        <mxCell id="kjzc6ONVyExZSv5m1NrL-26" value="bitmap" style="edgeLabel;html=1;align=center;verticalAlign=middle;resizable=0;points=[];" vertex="1" connectable="0" parent="kjzc6ONVyExZSv5m1NrL-23">
          <mxGeometry x="-0.1333" y="2" relative="1" as="geometry">
            <mxPoint as="offset" />
          </mxGeometry>
        </mxCell>
        <mxCell id="kjzc6ONVyExZSv5m1NrL-2" value="&lt;p style=&quot;margin:0px;margin-top:6px;text-align:center;&quot;&gt;&lt;b&gt;Render&lt;/b&gt;&lt;/p&gt;&lt;hr size=&quot;1&quot; style=&quot;border-style:solid;&quot;&gt;&lt;p style=&quot;margin:0px;margin-left:8px;&quot;&gt;+ blink&lt;br&gt;+ v8 engine&lt;/p&gt;&lt;p style=&quot;margin:0px;margin-left:8px;&quot;&gt;+ Skia&lt;/p&gt;&lt;p style=&quot;margin:0px;margin-left:8px;&quot;&gt;+ ffmpeg&lt;/p&gt;" style="align=left;overflow=fill;html=1;dropTarget=0;whiteSpace=wrap;" vertex="1" parent="1">
          <mxGeometry x="130" y="180" width="180" height="90" as="geometry" />
        </mxCell>
        <mxCell id="kjzc6ONVyExZSv5m1NrL-17" style="edgeStyle=orthogonalEdgeStyle;rounded=0;orthogonalLoop=1;jettySize=auto;html=1;entryX=0;entryY=0.5;entryDx=0;entryDy=0;exitX=0;exitY=0.5;exitDx=0;exitDy=0;" edge="1" parent="1" source="kjzc6ONVyExZSv5m1NrL-4" target="kjzc6ONVyExZSv5m1NrL-8">
          <mxGeometry relative="1" as="geometry">
            <mxPoint x="80" y="130" as="targetPoint" />
            <Array as="points">
              <mxPoint x="100" y="375" />
              <mxPoint x="100" y="75" />
            </Array>
          </mxGeometry>
        </mxCell>
        <mxCell id="kjzc6ONVyExZSv5m1NrL-18" value="notify window update image" style="edgeLabel;html=1;align=center;verticalAlign=middle;resizable=0;points=[];" vertex="1" connectable="0" parent="kjzc6ONVyExZSv5m1NrL-17">
          <mxGeometry x="-0.2057" y="1" relative="1" as="geometry">
            <mxPoint x="11" y="-118" as="offset" />
          </mxGeometry>
        </mxCell>
        <mxCell id="kjzc6ONVyExZSv5m1NrL-4" value="&lt;p style=&quot;margin:0px;margin-top:6px;text-align:center;&quot;&gt;&lt;b&gt;GPU&lt;/b&gt;&lt;/p&gt;&lt;hr size=&quot;1&quot; style=&quot;border-style:solid;&quot;&gt;&lt;p style=&quot;margin:0px;margin-left:8px;&quot;&gt;+ opengl/mental/directX&lt;br&gt;+ skia&amp;nbsp;&lt;span style=&quot;background-color: rgb(244, 246, 248); color: rgb(36, 41, 47); font-family: -apple-system, &amp;quot;system-ui&amp;quot;, &amp;quot;Segoe UI&amp;quot;, &amp;quot;Noto Sans&amp;quot;, Helvetica, Arial, sans-serif, &amp;quot;Apple Color Emoji&amp;quot;, &amp;quot;Segoe UI Emoji&amp;quot;; font-size: 14px; white-space-collapse: preserve;&quot;&gt;栅格化&lt;/span&gt;&lt;/p&gt;" style="align=left;overflow=fill;html=1;dropTarget=0;whiteSpace=wrap;" vertex="1" parent="1">
          <mxGeometry x="130" y="330" width="180" height="90" as="geometry" />
        </mxCell>
        <mxCell id="kjzc6ONVyExZSv5m1NrL-5" value="" style="shape=component;jettyWidth=8;jettyHeight=4;" vertex="1" parent="kjzc6ONVyExZSv5m1NrL-4">
          <mxGeometry x="1" width="20" height="20" relative="1" as="geometry">
            <mxPoint x="-24" y="4" as="offset" />
          </mxGeometry>
        </mxCell>
        <mxCell id="kjzc6ONVyExZSv5m1NrL-20" style="edgeStyle=orthogonalEdgeStyle;rounded=0;orthogonalLoop=1;jettySize=auto;html=1;entryX=1;entryY=0.75;entryDx=0;entryDy=0;" edge="1" parent="1" source="kjzc6ONVyExZSv5m1NrL-6" target="kjzc6ONVyExZSv5m1NrL-8">
          <mxGeometry relative="1" as="geometry" />
        </mxCell>
        <mxCell id="kjzc6ONVyExZSv5m1NrL-22" value="&amp;nbsp;http request" style="edgeLabel;html=1;align=center;verticalAlign=middle;resizable=0;points=[];" vertex="1" connectable="0" parent="kjzc6ONVyExZSv5m1NrL-20">
          <mxGeometry x="0.1224" y="-4" relative="1" as="geometry">
            <mxPoint as="offset" />
          </mxGeometry>
        </mxCell>
        <mxCell id="kjzc6ONVyExZSv5m1NrL-24" value="" style="edgeStyle=orthogonalEdgeStyle;rounded=0;orthogonalLoop=1;jettySize=auto;html=1;entryX=1;entryY=0.5;entryDx=0;entryDy=0;exitX=0.328;exitY=1.011;exitDx=0;exitDy=0;exitPerimeter=0;" edge="1" parent="1" source="kjzc6ONVyExZSv5m1NrL-6" target="kjzc6ONVyExZSv5m1NrL-4">
          <mxGeometry relative="1" as="geometry">
            <mxPoint x="420" y="310" as="sourcePoint" />
            <mxPoint x="340" y="350" as="targetPoint" />
            <Array as="points">
              <mxPoint x="419" y="310" />
              <mxPoint x="420" y="310" />
              <mxPoint x="420" y="375" />
            </Array>
          </mxGeometry>
        </mxCell>
        <mxCell id="kjzc6ONVyExZSv5m1NrL-25" value="bitmap" style="edgeLabel;html=1;align=center;verticalAlign=middle;resizable=0;points=[];" vertex="1" connectable="0" parent="kjzc6ONVyExZSv5m1NrL-24">
          <mxGeometry x="0.6837" y="-1" relative="1" as="geometry">
            <mxPoint as="offset" />
          </mxGeometry>
        </mxCell>
        <mxCell id="kjzc6ONVyExZSv5m1NrL-6" value="&lt;p style=&quot;margin:0px;margin-top:6px;text-align:center;&quot;&gt;&lt;b&gt;Render&lt;/b&gt;&lt;/p&gt;&lt;hr size=&quot;1&quot; style=&quot;border-style:solid;&quot;&gt;&lt;p style=&quot;margin:0px;margin-left:8px;&quot;&gt;+ blink&lt;br&gt;+ v8 engine&lt;/p&gt;&lt;p style=&quot;margin:0px;margin-left:8px;&quot;&gt;+ Skia&lt;/p&gt;&lt;p style=&quot;margin:0px;margin-left:8px;&quot;&gt;+ ffmpeg&lt;/p&gt;" style="align=left;overflow=fill;html=1;dropTarget=0;whiteSpace=wrap;" vertex="1" parent="1">
          <mxGeometry x="360" y="180" width="180" height="90" as="geometry" />
        </mxCell>
        <mxCell id="kjzc6ONVyExZSv5m1NrL-7" value="" style="shape=component;jettyWidth=8;jettyHeight=4;" vertex="1" parent="kjzc6ONVyExZSv5m1NrL-6">
          <mxGeometry x="1" width="20" height="20" relative="1" as="geometry">
            <mxPoint x="-24" y="4" as="offset" />
          </mxGeometry>
        </mxCell>
        <mxCell id="kjzc6ONVyExZSv5m1NrL-8" value="&lt;p style=&quot;margin:0px;margin-top:6px;text-align:center;&quot;&gt;&lt;b&gt;Browser&lt;/b&gt;&lt;/p&gt;&lt;hr size=&quot;1&quot; style=&quot;border-style:solid;&quot;&gt;&lt;p style=&quot;margin:0px;margin-left:8px;&quot;&gt;+ Network&lt;br&gt;+ Windows management&lt;/p&gt;&lt;p style=&quot;margin:0px;margin-left:8px;&quot;&gt;+ user input&lt;/p&gt;&lt;p style=&quot;margin:0px;margin-left:8px;&quot;&gt;+ local resource&lt;/p&gt;" style="align=left;overflow=fill;html=1;dropTarget=0;whiteSpace=wrap;" vertex="1" parent="1">
          <mxGeometry x="140" y="30" width="180" height="90" as="geometry" />
        </mxCell>
        <mxCell id="kjzc6ONVyExZSv5m1NrL-9" value="" style="shape=component;jettyWidth=8;jettyHeight=4;" vertex="1" parent="kjzc6ONVyExZSv5m1NrL-8">
          <mxGeometry x="1" width="20" height="20" relative="1" as="geometry">
            <mxPoint x="-24" y="4" as="offset" />
          </mxGeometry>
        </mxCell>
        <mxCell id="kjzc6ONVyExZSv5m1NrL-15" style="edgeStyle=orthogonalEdgeStyle;rounded=0;orthogonalLoop=1;jettySize=auto;html=1;exitX=0.5;exitY=1;exitDx=0;exitDy=0;entryX=0.5;entryY=1;entryDx=0;entryDy=0;" edge="1" parent="1" source="kjzc6ONVyExZSv5m1NrL-12" target="kjzc6ONVyExZSv5m1NrL-6">
          <mxGeometry relative="1" as="geometry" />
        </mxCell>
        <mxCell id="kjzc6ONVyExZSv5m1NrL-16" value="video/audio" style="edgeLabel;html=1;align=center;verticalAlign=middle;resizable=0;points=[];" vertex="1" connectable="0" parent="kjzc6ONVyExZSv5m1NrL-15">
          <mxGeometry x="-0.2918" y="2" relative="1" as="geometry">
            <mxPoint x="-47" as="offset" />
          </mxGeometry>
        </mxCell>
        <mxCell id="kjzc6ONVyExZSv5m1NrL-12" value="&lt;p style=&quot;margin:0px;margin-top:6px;text-align:center;&quot;&gt;&lt;b&gt;Plugin process&lt;/b&gt;&lt;/p&gt;&lt;hr size=&quot;1&quot; style=&quot;border-style:solid;&quot;&gt;&lt;p style=&quot;margin:0px;margin-left:8px;&quot;&gt;+ action script analyze&lt;/p&gt;" style="align=left;overflow=fill;html=1;dropTarget=0;whiteSpace=wrap;" vertex="1" parent="1">
          <mxGeometry x="590" y="180" width="170" height="90" as="geometry" />
        </mxCell>
        <mxCell id="kjzc6ONVyExZSv5m1NrL-13" value="" style="shape=component;jettyWidth=8;jettyHeight=4;" vertex="1" parent="kjzc6ONVyExZSv5m1NrL-12">
          <mxGeometry x="1" width="20" height="20" relative="1" as="geometry">
            <mxPoint x="-24" y="4" as="offset" />
          </mxGeometry>
        </mxCell>
      </root>
    </mxGraphModel>
  </diagram>
</mxfile>
